<svg xmlns="http://www.w3.org/2000/svg" xml:space="preserve" viewBox="0 0 50 50">
  <g fill="none" stroke-linecap="round" stroke-linejoin="round" stroke-miterlimit="10" stroke-width="1.5">
    <path stroke="#081F40" d="m3.81 40.49 2.31-.5c1.25-.27 2.55-.22 3.78.14h0c1.19.35 2.45.41 3.66.16l2.75-.37"/>
    <path stroke="#ED3741" d="m22.74 24.68-7.77.09a2.58 2.58 0 0 1-2.61-2.55l-.08-6.76a2.58 2.58 0 0 1 2.55-2.61l7.77-.09.14 11.92zM39.06 30.68h0c-.67.01-1.23-.53-1.23-1.21l-.26-21.92c-.01-.67.53-1.23 1.21-1.23h0c.67-.01 1.23.53 1.23 1.21l.25 21.92c.02.67-.52 1.22-1.2 1.23zM16.11 39.04c.01 1.11.93 2.01 2.04 1.99l1.22-.01c1.11-.01 2.01-.93 1.99-2.04M21.21 25.99l-.01-1.21-5.25.06.01 1.51M40.1 14.65c1.59.53 2.75 2.03 2.77 3.81v0a4.06 4.06 0 0 1-2.68 3.87"/>
    <g stroke="#ED3741">
      <path d="m46.06 11.21-1.04.61M48.01 18.42h-1.2M46.07 25.62l-1.04-.6"/>
    </g>
    <g stroke="#ED3741">
      <path d="m37.83 29.24-15.09-4.56M37.58 7.79 22.6 12.76"/>
    </g>
    <path stroke="#ED3741" d="M12.36 22.09 11 22.1c-.91.01-1.65-.72-1.66-1.63l-.04-3.2c-.01-.91.72-1.65 1.63-1.66l1.36-.02.07 6.5z"/>
    <path stroke="#081F40" d="M12.47 28.54c-.38.99-.25 3.43-.06 4.33.19.9 1.42 1.35 2.33 1.16h0c.47-.1.82-.49.87-.96l.52-4.68c.13-1.2-.7-2.3-1.89-2.5l-1.59-.27c-1.45-.24-2.91.4-3.71 1.65L7.3 30.2c-.35.63-.96 1.08-1.67 1.24l-3.61.78"/>
    <path stroke="#081F40" d="m7.7 35.96.07-.02c2.26-.49 3.57-1.78 4.44-3.92h0M15.92 27.15a2.26 2.26 0 0 0-1.68-1.27l-1.58-.27c-1.46-.25-2.91.4-3.71 1.64L7.3 30.2a2.57 2.57 0 0 1-1.67 1.24l-3.61.78M20.49 29l-4.01.87c-.17.04-.34.04-.51.01l.16-1.5c.05-.44-.03-.86-.21-1.23l3.8-1.14c.86-.26 1.76.27 1.95 1.15.09.41 0 .83-.21 1.17-.22.33-.56.58-.97.67zM21.25 32.53l-.07.01-5.03.85c-.21.03-.42.02-.61-.05.03-.09.07-.19.07-.29l.26-2.32 4.68-1.21c.84-.21 1.7.32 1.88 1.17.18.85-.35 1.66-1.18 1.84zM15.28 35.29h0c-.16-.73.3-1.45 1.04-1.61l4.7-1.02c.83-.18 1.65.35 1.83 1.18v0c.19.88-.41 1.74-1.31 1.85l-4.76.66a1.36 1.36 0 0 1-1.5-1.06z"/>
    <path stroke="#081F40" d="M15.8 37.73h0c-.14-.66.31-1.3.98-1.38l3.93-.47c.75-.09 1.44.4 1.6 1.14v0c.2.93-.53 1.81-1.49 1.77l-3.95-.16a1.14 1.14 0 0 1-1.07-.9z"/>
  </g>
</svg>
